<?xml version="1.0" standalone="no"?>
<!DOCTYPE svg PUBLIC "-//W3C//DTD SVG 20010904//EN"
 "http://www.w3.org/TR/2001/REC-SVG-20010904/DTD/svg10.dtd">
<svg version="1.0" xmlns="http://www.w3.org/2000/svg"
 width="120.000000pt" height="120.000000pt" viewBox="0 0 120.000000 120.000000"
 preserveAspectRatio="xMidYMid meet">
<metadata>
Created by potrace 1.14, written by Peter Selinger 2001-2017
</metadata>
<g transform="translate(0.000000,120.000000) scale(0.100000,-0.100000)"
fill="#000000" stroke="none">
<path d="M160 1040 l0 -130 30 0 30 0 0 -299 0 -300 -27 -3 -28 -3 0 -125 0
-125 175 -3 c96 -2 194 0 218 3 l43 6 -3 122 -3 122 -32 3 -33 3 0 95 0 94 79
0 c53 0 82 -4 90 -13 7 -9 12 -89 13 -223 l3 -209 145 -3 c80 -2 164 0 188 3
l42 6 0 125 0 126 -32 -4 -33 -3 -3 132 -3 131 -34 30 -34 30 35 37 34 36 0
148 0 148 -87 86 -86 87 -344 0 -343 0 0 -130z m724 -7 l66 -67 0 -121 0 -121
-40 -39 c-22 -21 -40 -44 -40 -50 0 -6 18 -29 40 -50 l40 -39 0 -148 0 -148
24 -6 c14 -3 29 -3 35 0 5 4 11 -19 13 -54 l3 -60 -117 0 -118 0 0 184 0 184
-37 36 -37 36 -123 0 -123 0 2 -162 3 -163 28 0 c26 1 27 -1 27 -57 l0 -58
-155 0 -155 0 0 54 c0 54 0 55 33 58 l32 3 3 373 2 372 -35 0 -35 0 0 55 0 55
299 0 299 0 66 -67z"/>
<path d="M470 840 l0 -150 123 0 122 0 38 39 c35 37 37 41 37 106 0 66 -1 69
-42 111 l-43 44 -117 0 -118 0 0 -150z m228 58 c16 -16 15 -99 -2 -120 -11
-14 -29 -18 -90 -18 l-76 0 0 65 0 65 58 2 57 1 -60 7 -60 7 81 1 c51 1 84 -2
92 -10z"/>
</g>
</svg>
